<svg xmlns="http://www.w3.org/2000/svg" viewBox="0 0 96.51 50.19"><defs><style>.cls-1{fill:#ed1f7a;}.cls-2{fill:#4b5eaa;}.cls-3{fill:#fcb017;}</style></defs><title>Asset 2</title><g id="Layer_2" data-name="Layer 2"><g id="Layer_1-2" data-name="Layer 1"><path d="M61.45,22.5a.77.77,0,0,1-.83.74c-.82,0-1.41-.74-3.29-.74a3.64,3.64,0,0,0-3.88,3.72A3.7,3.7,0,0,0,57.33,30c1.88,0,2.47-.74,3.29-.74a.77.77,0,0,1,.83.74c0,1-1.88,1.71-4,1.71-3.77,0-6.12-2.45-6.12-5.54s2.47-5.54,6.24-5.54C59.57,20.69,61.45,21.54,61.45,22.5Z"/><path d="M69.92,20.69a5.67,5.67,0,0,1,5.88,5.53,5.89,5.89,0,0,1-11.76,0C63.92,23.14,66.51,20.69,69.92,20.69Zm0,1.81a3.61,3.61,0,0,0-3.77,3.72A3.75,3.75,0,0,0,69.92,30a3.73,3.73,0,1,0,0-7.45Z"/><path d="M90,17.38V30.59a1.06,1.06,0,0,1-2.11,0v-.74a5.16,5.16,0,0,1-4.12,1.91,5.54,5.54,0,1,1,0-11.07,5.4,5.4,0,0,1,4.12,1.81V17.28a1,1,0,0,1,1-1A1,1,0,0,1,90,17.38Zm-2.23,8.84A3.67,3.67,0,0,0,84,22.5a3.6,3.6,0,0,0-3.76,3.72A3.74,3.74,0,0,0,84,30,3.67,3.67,0,0,0,87.81,26.22Z"/><path d="M96.51,17.92a1.3,1.3,0,1,1-1.29-1.17A1.25,1.25,0,0,1,96.51,17.92ZM95.22,31.55a.94.94,0,0,1-1.06-1V22a1.07,1.07,0,0,1,2.12,0v8.63A1,1,0,0,1,95.22,31.55Z"/><path class="cls-1" d="M14.38,26.86H4.14a.85.85,0,1,1,0-1.7H14.38a.85.85,0,1,1,0,1.7Z"/><path class="cls-2" d="M28.85,13.76a1,1,0,0,1-.94-.85V3.54a.94.94,0,0,1,1.88,0V13A1,1,0,0,1,28.85,13.76Z"/><path class="cls-2" d="M28.85,47a1,1,0,0,1-.94-.86V39.22a.94.94,0,0,1,1.88,0v6.92A1.07,1.07,0,0,1,28.85,47Z"/><path class="cls-1" d="M12.26,41.88a1.8,1.8,0,0,1-.71-.21.78.78,0,0,1,0-1.17l6.24-5.65a1,1,0,0,1,1.3,0,.78.78,0,0,1,0,1.17L13,41.56A1,1,0,0,1,12.26,41.88Z"/><path class="cls-1" d="M39.09,17.6a1.73,1.73,0,0,1-.7-.22.77.77,0,0,1,0-1.17l6.11-5.54a1,1,0,0,1,1.3,0,.78.78,0,0,1,0,1.17l-6.12,5.54C39.56,17.6,39.33,17.6,39.09,17.6Z"/><path class="cls-1" d="M44.86,41.46a1.77,1.77,0,0,1-.71-.22l-5.88-5.32a.78.78,0,0,1,0-1.17,1,1,0,0,1,1.29,0l5.89,5.32a.78.78,0,0,1,0,1.17C45.33,41.46,45.09,41.46,44.86,41.46Z"/><path class="cls-1" d="M13,12.59a1.92,1.92,0,0,1-.71-.21l-1.65-1.49a.91.91,0,0,1,0-1.28,1,1,0,0,1,1.3,0l1.65,1.49a.78.78,0,0,1,0,1.17A.68.68,0,0,1,13,12.59Z"/><path class="cls-3" d="M18.62,17.6a1.77,1.77,0,0,1-.71-.22l-3.06-2.77a.78.78,0,0,1,0-1.17,1,1,0,0,1,1.29,0l3.06,2.77a.77.77,0,0,1,0,1.17C19.09,17.6,18.85,17.6,18.62,17.6Z"/><path class="cls-1" d="M5.67,35.6a.88.88,0,0,1-.83-.53A.74.74,0,0,1,5.31,34l9.77-3.62a.86.86,0,0,1,1.18.43.73.73,0,0,1-.47,1.06L6,35.49A.46.46,0,0,1,5.67,35.6Z"/><path class="cls-1" d="M23.21,14.83a.89.89,0,0,1-.83-.54l-1.53-3.4a.74.74,0,0,1,.47-1.07.86.86,0,0,1,1.18.43L24,13.66a.72.72,0,0,1-.47,1.06A.46.46,0,0,1,23.21,14.83Z"/><path class="cls-3" d="M20.38,8.44a.9.9,0,0,1-.83-.54L18.38,5.45a.72.72,0,0,1,.47-1.06A.87.87,0,0,1,20,4.81L21.2,7.26a.73.73,0,0,1-.47,1.07A.45.45,0,0,1,20.38,8.44Z"/><path class="cls-2" d="M37.44,45.72a.9.9,0,0,1-.82-.53l-3.06-6.72A.73.73,0,0,1,34,37.41a.86.86,0,0,1,1.18.43l3.06,6.71a.73.73,0,0,1-.47,1.06A.47.47,0,0,1,37.44,45.72Z"/><path class="cls-1" d="M34.39,14.83a.47.47,0,0,1-.36-.11.75.75,0,0,1-.47-1.06l3.88-8.53a.9.9,0,0,1,1.18-.42c.47.21.71.64.47,1.06l-3.88,8.52A.89.89,0,0,1,34.39,14.83Z"/><path class="cls-3" d="M20.49,45a.49.49,0,0,1-.35-.1c-.47-.22-.71-.64-.47-1.07l2.71-6a.89.89,0,0,1,1.17-.43c.47.21.71.64.47,1.06l-2.7,6A.88.88,0,0,1,20.49,45Z"/><path class="cls-1" d="M15.43,21.86a.46.46,0,0,1-.35-.11L5.55,18.13a.75.75,0,0,1-.47-1.07.89.89,0,0,1,1.18-.42l9.53,3.62a.75.75,0,0,1,.47,1.06A.89.89,0,0,1,15.43,21.86Z"/><path class="cls-2" d="M7.55,30.7a1,1,0,0,1-.94-.64.84.84,0,0,1,.71-1l7.06-1.28a.92.92,0,0,1,1.06.64.85.85,0,0,1-.71,1L7.67,30.7Z"/><path class="cls-3" d="M1,31.87A1,1,0,0,1,0,31.23a.85.85,0,0,1,.71-1l3.18-.53A.92.92,0,0,1,5,30.38a.85.85,0,0,1-.71,1l-3.18.53Z"/><path class="cls-1" d="M32.26,42.84a1,1,0,0,1-.94-.64l-.71-3.09a.85.85,0,0,1,.71-1,.93.93,0,0,1,1.06.64l.71,3.09a.84.84,0,0,1-.71,1Z"/><path class="cls-3" d="M33.91,50.19a1,1,0,0,1-.94-.64l-1.06-4.68a.83.83,0,0,1,.71-1,.9.9,0,0,1,1.05.64l1.06,4.68a.83.83,0,0,1-.7,1Z"/><path class="cls-3" d="M26,14.08a1,1,0,0,1-.94-.64l-.59-2.66a.85.85,0,0,1,.71-1,.92.92,0,0,1,1.06.64l.59,2.66a.84.84,0,0,1-.71,1Z"/><path class="cls-1" d="M24.74,8.44a1,1,0,0,1-.95-.64L22.38,1a.85.85,0,0,1,.71-1,.92.92,0,0,1,1.06.64l1.53,6.82a.84.84,0,0,1-.71,1Z"/><path class="cls-3" d="M36.85,16a.74.74,0,0,1-.47-.11.71.71,0,0,1-.23-1.17l2.47-3.3a.88.88,0,0,1,1.29-.22.73.73,0,0,1,.24,1.18l-2.47,3.3A1.38,1.38,0,0,1,36.85,16Z"/><path class="cls-2" d="M41.21,10.14a.73.73,0,0,1-.47-.11.72.72,0,0,1-.24-1.17l3.06-4.15a.89.89,0,0,1,1.18-.32A.71.71,0,0,1,45,5.56L41.91,9.71A.73.73,0,0,1,41.21,10.14Z"/><path class="cls-3" d="M14,47a.8.8,0,0,1-.47-.1.71.71,0,0,1-.23-1.17L16,42.09a.9.9,0,0,1,1.3-.21.71.71,0,0,1,.23,1.17l-2.7,3.63A1.36,1.36,0,0,1,14,47Z"/><path class="cls-2" d="M18.61,40.82a.76.76,0,0,1-.47-.11.71.71,0,0,1-.23-1.17l2.23-3a.9.9,0,0,1,1.3-.22.72.72,0,0,1,.23,1.18l-2.23,3A2.59,2.59,0,0,1,18.61,40.82Z"/><path class="cls-2" d="M16.73,19.62a.74.74,0,0,1-.47-.11L13.9,18a.72.72,0,0,1-.23-1.17A.88.88,0,0,1,15,16.64l2.36,1.49a.72.72,0,0,1,.23,1.17A1.12,1.12,0,0,1,16.73,19.62Z"/><path class="cls-3" d="M11.67,16.53a.82.82,0,0,1-.47-.1L4,12.06a.72.72,0,0,1-.24-1.17,1.15,1.15,0,0,1,1.29-.22L12.26,15a.72.72,0,0,1,.24,1.17A1.11,1.11,0,0,1,11.67,16.53Z"/><path class="cls-2" d="M7.32,40a1.12,1.12,0,0,1-.82-.32.92.92,0,0,1,.23-1.18l4.59-2.77a1.15,1.15,0,0,1,1.29.22.9.9,0,0,1-.23,1.17L7.79,39.86C7.67,39.86,7.44,40,7.32,40Z"/><path class="cls-3" d="M14.85,35.28A1.15,1.15,0,0,1,14,35a.92.92,0,0,1,.24-1.17l1.88-1.17a1.15,1.15,0,0,1,1.3.21A.92.92,0,0,1,17.2,34l-1.76,1.17A1.15,1.15,0,0,1,14.85,35.28Z"/><path class="cls-2" d="M20.74,16a1.15,1.15,0,0,1-.83-.32l-7.41-10a.89.89,0,0,1,.24-1.17,1,1,0,0,1,1.41.21l7.41,10a.9.9,0,0,1-.23,1.17A1.15,1.15,0,0,1,20.74,16Z"/><path class="cls-2" d="M43,46.14a1.12,1.12,0,0,1-.83-.32L39.2,41.88a.92.92,0,0,1,.24-1.17,1.15,1.15,0,0,1,1.29.21l2.94,3.95A.9.9,0,0,1,43.44,46C43.32,46.14,43.2,46.14,43,46.14Z"/><path class="cls-3" d="M38.15,39.65a1.16,1.16,0,0,1-.83-.32L36,37.52a.92.92,0,0,1,.24-1.18,1.15,1.15,0,0,1,1.29.22l1.29,1.81a.9.9,0,0,1-.23,1.17C38.5,39.54,38.38,39.65,38.15,39.65Z"/><path class="cls-1" d="M24,48.38h-.24a.85.85,0,0,1-.71-1L25,38.79A.92.92,0,0,1,26,38.15a.84.84,0,0,1,.7,1l-1.88,8.63A.76.76,0,0,1,24,48.38Z"/><path class="cls-3" d="M31.68,14.08h-.24a.85.85,0,0,1-.71-1L33.09,2.36a.93.93,0,0,1,1.06-.64.84.84,0,0,1,.7,1L32.5,13.44A1,1,0,0,1,31.68,14.08Z"/><path class="cls-3" d="M14.61,24.31h-.23l-5-.85a.84.84,0,0,1-.7-1,.92.92,0,0,1,1.06-.64l5.06.85a.83.83,0,0,1,.7,1A.89.89,0,0,1,14.61,24.31Z"/><path class="cls-2" d="M6.26,22.82H6L1.2,22a.83.83,0,0,1-.7-1,.9.9,0,0,1,1.05-.63l4.83.85a.84.84,0,0,1,.71,1C7.09,22.6,6.73,22.82,6.26,22.82Z"/></g></g></svg>